<svg xmlns="http://www.w3.org/2000/svg" viewBox="0 0 1261 552" preserveAspectRatio="none">
<defs><linearGradient id="fill" x1="0" y1="0" x2="0" y2="1"><stop offset="0" stop-color="#2ab59b" stop-opacity=".22"/><stop offset="1" stop-color="#2ab59b" stop-opacity=".025"/></linearGradient></defs>
<style>.grid{stroke:#aeb9c2;stroke-width:1;stroke-dasharray:1 4;opacity:.55}.baseline{stroke:#2ab59b;stroke-width:1;stroke-dasharray:2 4;opacity:.55}.area{fill:url(#fill)}.line{fill:none;stroke:#2ab59b;stroke-width:2.5;stroke-linecap:round;stroke-linejoin:round}.level{fill:#f7fafc;stroke:#2ab59b;stroke-width:2}.pulse{fill:#2ab59b;stroke:#fff;stroke-width:3;transform-box:fill-box;transform-origin:center;animation:p 1.8s ease-in-out infinite}@keyframes p{0%,100%{transform:scale(.8);opacity:.65}50%{transform:scale(1.25);opacity:1}}</style>
<g class="grid"><path d="M0 64H1261M0 122H1261M0 180H1261M0 238H1261M0 296H1261M0 354H1261M0 412H1261M0 470H1261M35 0V552M213 0V552M391 0V552M569 0V552M747 0V552M925 0V552M1103 0V552"/></g>
<path class="baseline" d="M0 329H1261"/>
<path class="area" d="M0.0,331.0 L2.0,326.5 L4.0,324.5 L6.0,322.5 L8.0,315.0 L10.0,314.5 L12.0,320.5 L14.0,326.0 L16.0,327.5 L18.0,328.0 L20.0,331.0 L22.0,332.5 L24.0,333.5 L26.0,334.5 L28.0,333.0 L30.0,335.0 L32.0,346.5 L34.0,358.5 L36.0,361.0 L38.0,354.0 L40.0,344.5 L42.0,335.2 L44.0,330.5 L46.0,330.0 L48.0,332.5 L50.0,335.5 L52.0,339.0 L54.0,343.0 L56.0,344.5 L58.0,337.5 L60.0,342.0 L62.0,348.0 L64.0,348.0 L66.0,345.0 L68.0,340.5 L70.0,338.0 L72.0,342.0 L74.0,330.5 L76.0,320.0 L78.0,321.5 L80.0,317.5 L82.0,312.5 L84.0,312.5 L86.0,315.0 L88.0,310.5 L90.0,294.0 L92.0,291.0 L94.0,296.0 L96.0,301.5 L98.0,305.5 L100.0,305.5 L102.0,303.0 L104.0,300.0 L106.0,302.0 L108.0,303.0 L110.0,300.0 L112.0,301.5 L114.0,305.5 L116.0,308.0 L118.0,307.0 L120.0,306.0 L122.0,309.0 L124.0,309.5 L126.0,308.5 L128.0,307.5 L130.0,303.0 L132.0,297.5 L134.0,292.0 L136.0,289.5 L138.0,289.5 L140.0,292.0 L142.0,297.5 L144.0,299.5 L146.0,298.5 L148.0,297.5 L150.0,297.5 L152.0,301.0 L154.0,308.0 L156.0,308.0 L158.0,307.0 L160.0,309.6 L162.0,312.2 L164.0,314.5 L166.0,316.5 L168.0,315.5 L170.0,315.5 L172.0,317.5 L174.0,322.0 L176.0,323.5 L178.0,324.5 L180.0,325.5 L182.0,327.0 L184.0,329.5 L186.0,328.5 L188.0,331.5 L190.0,340.0 L192.0,349.5 L194.0,345.0 L196.0,345.5 L198.0,347.5 L200.0,345.0 L202.0,347.5 L204.0,351.0 L206.0,348.5 L208.0,343.0 L210.0,338.0 L212.0,337.0 L214.0,339.0 L216.0,343.5 L218.0,351.0 L220.0,361.0 L222.0,370.0 L224.0,371.0 L226.0,365.0 L228.0,370.5 L230.0,376.0 L232.0,372.5 L234.0,368.0 L236.0,365.0 L238.0,365.5 L240.0,367.5 L242.0,368.0 L244.0,366.0 L246.0,362.0 L248.0,356.0 L250.0,349.0 L252.0,337.0 L254.0,326.0 L256.0,324.5 L258.0,328.0 L260.0,329.5 L262.0,326.5 L264.0,320.0 L266.0,313.0 L268.0,310.5 L270.0,307.0 L272.0,308.0 L274.0,311.0 L276.0,316.0 L278.0,319.7 L280.0,318.0 L282.0,316.3 L284.0,313.5 L286.0,308.0 L288.0,307.0 L290.0,306.0 L292.0,309.5 L294.0,314.0 L296.0,316.5 L298.0,322.0 L300.0,325.5 L302.0,323.5 L304.0,334.0 L306.0,345.0 L308.0,349.0 L310.0,357.0 L312.0,368.5 L314.0,382.5 L316.0,380.0 L318.0,378.5 L320.0,373.0 L322.0,352.0 L324.0,346.0 L326.0,347.5 L328.0,348.0 L330.0,354.5 L332.0,359.5 L334.0,357.0 L336.0,353.0 L338.0,351.5 L340.0,358.5 L342.0,364.0 L344.0,365.5 L346.0,361.0 L348.0,357.0 L350.0,359.5 L352.0,361.0 L354.0,357.5 L356.0,357.5 L358.0,356.0 L360.0,349.0 L362.0,348.5 L364.0,346.5 L366.0,334.0 L368.0,329.5 L370.0,328.8 L372.0,329.0 L374.0,332.5 L376.0,341.0 L378.0,352.5 L380.0,358.0 L382.0,357.5 L384.0,357.0 L386.0,357.5 L388.0,358.5 L390.0,361.0 L392.0,367.0 L394.0,363.0 L396.0,360.0 L398.0,362.1 L400.0,364.3 L402.0,366.5 L404.0,374.0 L406.0,381.5 L408.0,387.5 L410.0,387.0 L412.0,384.0 L414.0,376.5 L416.0,370.0 L418.0,367.0 L420.0,367.5 L422.0,368.0 L424.0,364.5 L426.0,357.0 L428.0,351.0 L430.0,353.0 L432.0,355.5 L434.0,359.0 L436.0,362.5 L438.0,357.5 L440.0,350.5 L442.0,344.0 L444.0,338.5 L446.0,335.5 L448.0,334.5 L450.0,334.0 L452.0,333.5 L454.0,332.5 L456.0,333.5 L458.0,331.5 L460.0,329.5 L462.0,333.5 L464.0,329.0 L466.0,323.0 L468.0,320.0 L470.0,319.5 L472.0,319.5 L474.0,321.5 L476.0,330.5 L478.0,341.0 L480.0,348.0 L482.0,349.5 L484.0,349.5 L486.0,347.5 L488.0,342.5 L490.0,341.5 L492.0,340.0 L494.0,338.0 L496.0,339.0 L498.0,340.5 L500.0,341.0 L502.0,345.5 L504.0,350.0 L506.0,351.0 L508.0,343.0 L510.0,337.0 L512.0,335.0 L514.0,336.0 L516.0,328.5 L518.0,323.6 L520.0,320.9 L522.0,310.5 L524.0,309.5 L526.0,310.0 L528.0,307.5 L530.0,304.5 L532.0,304.5 L534.0,303.0 L536.0,303.0 L538.0,308.5 L540.0,310.5 L542.0,312.5 L544.0,313.0 L546.0,308.0 L548.0,310.5 L550.0,314.5 L552.0,313.0 L554.0,310.0 L556.0,305.0 L558.0,297.5 L560.0,287.5 L562.0,280.0 L564.0,282.0 L566.0,288.0 L568.0,295.0 L570.0,298.5 L572.0,299.0 L574.0,301.0 L576.0,303.5 L578.0,306.5 L580.0,303.5 L582.0,291.5 L584.0,270.5 L586.0,261.5 L588.0,260.0 L590.0,258.0 L592.0,256.5 L594.0,252.0 L596.0,237.0 L598.0,211.0 L600.0,189.5 L602.0,188.0 L604.0,179.5 L606.0,186.0 L608.0,190.0 L610.0,178.0 L612.0,174.5 L614.0,177.0 L616.0,179.0 L618.0,178.0 L620.0,174.5 L622.0,167.0 L624.0,160.0 L626.0,149.5 L628.0,135.5 L630.0,129.0 L632.0,129.0 L634.0,132.5 L636.0,139.8 L638.0,148.0 L640.0,162.0 L642.0,167.0 L644.0,157.0 L646.0,146.5 L648.0,146.0 L650.0,141.5 L652.0,137.5 L654.0,141.0 L656.0,139.5 L658.0,139.0 L660.0,144.0 L662.0,145.5 L664.0,139.5 L666.0,131.5 L668.0,136.5 L670.0,130.5 L672.0,123.0 L674.0,121.5 L676.0,118.0 L678.0,120.0 L680.0,132.0 L682.0,139.0 L684.0,135.0 L686.0,120.5 L688.0,118.0 L690.0,119.5 L692.0,115.0 L694.0,113.5 L696.0,108.0 L698.0,96.0 L700.0,88.5 L702.0,86.5 L704.0,94.0 L706.0,114.0 L708.0,128.5 L710.0,134.5 L712.0,135.0 L714.0,136.0 L716.0,140.0 L718.0,147.5 L720.0,151.0 L722.0,147.0 L724.0,134.5 L726.0,127.5 L728.0,132.5 L730.0,146.5 L732.0,153.5 L734.0,152.5 L736.0,151.5 L738.0,157.0 L740.0,161.5 L742.0,163.0 L744.0,160.5 L746.0,156.5 L748.0,151.0 L750.0,142.5 L752.0,136.5 L754.0,133.5 L756.0,129.5 L758.0,125.5 L760.0,121.5 L762.0,115.5 L764.0,133.5 L766.0,145.0 L768.0,153.0 L770.0,162.0 L772.0,158.5 L774.0,153.0 L776.0,152.5 L778.0,153.5 L780.0,153.5 L782.0,153.0 L784.0,148.0 L786.0,137.5 L788.0,123.5 L790.0,120.0 L792.0,114.0 L794.0,100.0 L796.0,97.0 L798.0,105.5 L800.0,112.5 L802.0,109.0 L804.0,97.5 L806.0,89.5 L808.0,97.5 L810.0,99.5 L812.0,98.0 L814.0,94.5 L816.0,93.5 L818.0,97.0 L820.0,104.0 L822.0,108.0 L824.0,111.0 L826.0,111.0 L828.0,103.0 L830.0,97.0 L832.0,97.0 L834.0,105.5 L836.0,113.0 L838.0,121.5 L840.0,131.5 L842.0,124.5 L844.0,118.0 L846.0,130.0 L848.0,138.0 L850.0,141.0 L852.0,141.5 L854.0,141.5 L856.0,141.5 L858.0,141.5 L860.0,141.5 L862.0,139.5 L864.0,138.5 L866.0,144.0 L868.0,140.0 L870.0,135.5 L872.0,140.5 L874.0,137.5 L876.0,137.5 L878.0,137.5 L880.0,141.0 L882.0,144.0 L884.0,145.5 L886.0,146.5 L888.0,144.0 L890.0,139.5 L892.0,133.5 L894.0,137.5 L896.0,143.0 L898.0,142.0 L900.0,142.5 L902.0,149.5 L904.0,165.5 L906.0,179.0 L908.0,193.0 L910.0,208.0 L912.0,212.0 L914.0,210.5 L916.0,212.0 L918.0,203.0 L920.0,179.0 L922.0,166.0 L924.0,191.5 L926.0,198.5 L928.0,191.5 L930.0,180.5 L932.0,178.0 L934.0,184.0 L936.0,194.0 L938.0,200.0 L940.0,208.5 L942.0,227.0 L944.0,239.5 L946.0,240.5 L948.0,226.0 L950.0,218.0 L952.0,224.0 L954.0,227.5 L956.0,218.0 L958.0,213.5 L960.0,214.5 L962.0,220.5 L964.0,218.5 L966.0,215.5 L968.0,219.5 L970.0,210.0 L972.0,201.0 L974.0,209.5 L976.0,213.5 L978.0,214.5 L980.0,214.0 L982.0,206.0 L984.0,198.0 L986.0,194.0 L988.0,194.5 L990.0,194.8 L992.0,194.5 L994.0,199.8 L996.0,205.5 L998.0,213.5 L1000.0,220.0 L1002.0,222.5 L1004.0,223.5 L1006.0,222.0 L1008.0,215.0 L1010.0,211.0 L1012.0,219.5 L1014.0,220.5 L1016.0,217.0 L1018.0,215.5 L1020.0,218.5 L1022.0,232.5 L1024.0,245.5 L1026.0,243.5 L1028.0,251.0 L1030.0,251.0 L1032.0,230.5 L1034.0,231.0 L1036.0,235.0 L1038.0,222.5 L1040.0,212.0 L1042.0,209.0 L1044.0,214.0 L1046.0,212.5 L1048.0,213.5 L1050.0,215.5 L1052.0,214.5 L1054.0,211.5 L1056.0,209.0 L1058.0,211.0 L1060.0,210.0 L1062.0,207.5 L1064.0,207.0 L1066.0,200.5 L1068.0,187.0 L1070.0,167.5 L1072.0,158.5 L1074.0,157.5 L1076.0,156.5 L1078.0,153.5 L1080.0,152.5 L1082.0,153.5 L1084.0,156.5 L1086.0,154.0 L1088.0,151.0 L1090.0,154.0 L1092.0,154.8 L1094.0,152.0 L1096.0,144.5 L1098.0,140.5 L1100.0,140.5 L1102.0,144.5 L1104.0,149.5 L1106.0,154.0 L1108.0,149.5 L1110.0,144.0 L1112.0,136.3 L1114.0,128.0 L1116.0,111.5 L1118.0,103.5 L1120.0,102.5 L1122.0,96.0 L1124.0,96.0 L1126.0,99.0 L1128.0,104.0 L1130.0,102.0 L1132.0,98.0 L1134.0,100.5 L1136.0,100.5 L1138.0,100.0 L1140.0,101.5 L1142.0,102.5 L1144.0,93.5 L1146.0,85.5 L1148.0,88.0 L1150.0,86.0 L1152.0,79.0 L1154.0,68.5 L1156.0,59.5 L1158.0,59.5 L1160.0,73.5 L1162.0,78.0 L1164.0,75.0 L1166.0,70.5 L1168.0,68.0 L1170.0,68.0 L1172.0,71.0 L1174.0,76.0 L1176.0,83.0 L1178.0,90.5 L1180.0,96.0 L1182.0,96.5 L1184.0,93.5 L1186.0,89.5 L1188.0,88.0 L1190.0,88.0 L1192.0,89.5 L1194.0,92.0 L1196.0,98.5 L1198.0,109.0 L1200.0,104.5 L1202.0,95.0 L1204.0,89.0 L1206.0,87.0 L1208.0,75.5 L1210.0,63.0 L1212.0,62.5 L1214.0,66.5 L1216.0,75.0 L1218.0,85.0 L1220.0,87.5 L1222.0,87.0 L1224.0,89.0 L1226.0,89.5 L1228.0,87.5 L1230.0,83.5 L1232.0,87.0 L1234.0,89.6 L1236.0,92.2 L1238.0,95.2 L1240.0,98.5 L1242.0,103.5 L1244.0,108.0 L1246.0,112.5 L1248.0,110.0 L1250.0,96.0 L1252.0,88.0 L1254.0,85.0 L1256.0,80.0 L1258.0,75.0 L1260.0,72.0 L1275,72.0 L1275,552 L0,552 Z"/>
<path class="line" d="M0.0,331.0 L2.0,326.5 L4.0,324.5 L6.0,322.5 L8.0,315.0 L10.0,314.5 L12.0,320.5 L14.0,326.0 L16.0,327.5 L18.0,328.0 L20.0,331.0 L22.0,332.5 L24.0,333.5 L26.0,334.5 L28.0,333.0 L30.0,335.0 L32.0,346.5 L34.0,358.5 L36.0,361.0 L38.0,354.0 L40.0,344.5 L42.0,335.2 L44.0,330.5 L46.0,330.0 L48.0,332.5 L50.0,335.5 L52.0,339.0 L54.0,343.0 L56.0,344.5 L58.0,337.5 L60.0,342.0 L62.0,348.0 L64.0,348.0 L66.0,345.0 L68.0,340.5 L70.0,338.0 L72.0,342.0 L74.0,330.5 L76.0,320.0 L78.0,321.5 L80.0,317.5 L82.0,312.5 L84.0,312.5 L86.0,315.0 L88.0,310.5 L90.0,294.0 L92.0,291.0 L94.0,296.0 L96.0,301.5 L98.0,305.5 L100.0,305.5 L102.0,303.0 L104.0,300.0 L106.0,302.0 L108.0,303.0 L110.0,300.0 L112.0,301.5 L114.0,305.5 L116.0,308.0 L118.0,307.0 L120.0,306.0 L122.0,309.0 L124.0,309.5 L126.0,308.5 L128.0,307.5 L130.0,303.0 L132.0,297.5 L134.0,292.0 L136.0,289.5 L138.0,289.5 L140.0,292.0 L142.0,297.5 L144.0,299.5 L146.0,298.5 L148.0,297.5 L150.0,297.5 L152.0,301.0 L154.0,308.0 L156.0,308.0 L158.0,307.0 L160.0,309.6 L162.0,312.2 L164.0,314.5 L166.0,316.5 L168.0,315.5 L170.0,315.5 L172.0,317.5 L174.0,322.0 L176.0,323.5 L178.0,324.5 L180.0,325.5 L182.0,327.0 L184.0,329.5 L186.0,328.5 L188.0,331.5 L190.0,340.0 L192.0,349.5 L194.0,345.0 L196.0,345.5 L198.0,347.5 L200.0,345.0 L202.0,347.5 L204.0,351.0 L206.0,348.5 L208.0,343.0 L210.0,338.0 L212.0,337.0 L214.0,339.0 L216.0,343.5 L218.0,351.0 L220.0,361.0 L222.0,370.0 L224.0,371.0 L226.0,365.0 L228.0,370.5 L230.0,376.0 L232.0,372.5 L234.0,368.0 L236.0,365.0 L238.0,365.5 L240.0,367.5 L242.0,368.0 L244.0,366.0 L246.0,362.0 L248.0,356.0 L250.0,349.0 L252.0,337.0 L254.0,326.0 L256.0,324.5 L258.0,328.0 L260.0,329.5 L262.0,326.5 L264.0,320.0 L266.0,313.0 L268.0,310.5 L270.0,307.0 L272.0,308.0 L274.0,311.0 L276.0,316.0 L278.0,319.7 L280.0,318.0 L282.0,316.3 L284.0,313.5 L286.0,308.0 L288.0,307.0 L290.0,306.0 L292.0,309.5 L294.0,314.0 L296.0,316.5 L298.0,322.0 L300.0,325.5 L302.0,323.5 L304.0,334.0 L306.0,345.0 L308.0,349.0 L310.0,357.0 L312.0,368.5 L314.0,382.5 L316.0,380.0 L318.0,378.5 L320.0,373.0 L322.0,352.0 L324.0,346.0 L326.0,347.5 L328.0,348.0 L330.0,354.5 L332.0,359.5 L334.0,357.0 L336.0,353.0 L338.0,351.5 L340.0,358.5 L342.0,364.0 L344.0,365.5 L346.0,361.0 L348.0,357.0 L350.0,359.5 L352.0,361.0 L354.0,357.5 L356.0,357.5 L358.0,356.0 L360.0,349.0 L362.0,348.5 L364.0,346.5 L366.0,334.0 L368.0,329.5 L370.0,328.8 L372.0,329.0 L374.0,332.5 L376.0,341.0 L378.0,352.5 L380.0,358.0 L382.0,357.5 L384.0,357.0 L386.0,357.5 L388.0,358.5 L390.0,361.0 L392.0,367.0 L394.0,363.0 L396.0,360.0 L398.0,362.1 L400.0,364.3 L402.0,366.5 L404.0,374.0 L406.0,381.5 L408.0,387.5 L410.0,387.0 L412.0,384.0 L414.0,376.5 L416.0,370.0 L418.0,367.0 L420.0,367.5 L422.0,368.0 L424.0,364.5 L426.0,357.0 L428.0,351.0 L430.0,353.0 L432.0,355.5 L434.0,359.0 L436.0,362.5 L438.0,357.5 L440.0,350.5 L442.0,344.0 L444.0,338.5 L446.0,335.5 L448.0,334.5 L450.0,334.0 L452.0,333.5 L454.0,332.5 L456.0,333.5 L458.0,331.5 L460.0,329.5 L462.0,333.5 L464.0,329.0 L466.0,323.0 L468.0,320.0 L470.0,319.5 L472.0,319.5 L474.0,321.5 L476.0,330.5 L478.0,341.0 L480.0,348.0 L482.0,349.5 L484.0,349.5 L486.0,347.5 L488.0,342.5 L490.0,341.5 L492.0,340.0 L494.0,338.0 L496.0,339.0 L498.0,340.5 L500.0,341.0 L502.0,345.5 L504.0,350.0 L506.0,351.0 L508.0,343.0 L510.0,337.0 L512.0,335.0 L514.0,336.0 L516.0,328.5 L518.0,323.6 L520.0,320.9 L522.0,310.5 L524.0,309.5 L526.0,310.0 L528.0,307.5 L530.0,304.5 L532.0,304.5 L534.0,303.0 L536.0,303.0 L538.0,308.5 L540.0,310.5 L542.0,312.5 L544.0,313.0 L546.0,308.0 L548.0,310.5 L550.0,314.5 L552.0,313.0 L554.0,310.0 L556.0,305.0 L558.0,297.5 L560.0,287.5 L562.0,280.0 L564.0,282.0 L566.0,288.0 L568.0,295.0 L570.0,298.5 L572.0,299.0 L574.0,301.0 L576.0,303.5 L578.0,306.5 L580.0,303.5 L582.0,291.5 L584.0,270.5 L586.0,261.5 L588.0,260.0 L590.0,258.0 L592.0,256.5 L594.0,252.0 L596.0,237.0 L598.0,211.0 L600.0,189.5 L602.0,188.0 L604.0,179.5 L606.0,186.0 L608.0,190.0 L610.0,178.0 L612.0,174.5 L614.0,177.0 L616.0,179.0 L618.0,178.0 L620.0,174.5 L622.0,167.0 L624.0,160.0 L626.0,149.5 L628.0,135.5 L630.0,129.0 L632.0,129.0 L634.0,132.5 L636.0,139.8 L638.0,148.0 L640.0,162.0 L642.0,167.0 L644.0,157.0 L646.0,146.5 L648.0,146.0 L650.0,141.5 L652.0,137.5 L654.0,141.0 L656.0,139.5 L658.0,139.0 L660.0,144.0 L662.0,145.5 L664.0,139.5 L666.0,131.5 L668.0,136.5 L670.0,130.5 L672.0,123.0 L674.0,121.5 L676.0,118.0 L678.0,120.0 L680.0,132.0 L682.0,139.0 L684.0,135.0 L686.0,120.5 L688.0,118.0 L690.0,119.5 L692.0,115.0 L694.0,113.5 L696.0,108.0 L698.0,96.0 L700.0,88.5 L702.0,86.5 L704.0,94.0 L706.0,114.0 L708.0,128.5 L710.0,134.5 L712.0,135.0 L714.0,136.0 L716.0,140.0 L718.0,147.5 L720.0,151.0 L722.0,147.0 L724.0,134.5 L726.0,127.5 L728.0,132.5 L730.0,146.5 L732.0,153.5 L734.0,152.5 L736.0,151.5 L738.0,157.0 L740.0,161.5 L742.0,163.0 L744.0,160.5 L746.0,156.5 L748.0,151.0 L750.0,142.5 L752.0,136.5 L754.0,133.5 L756.0,129.5 L758.0,125.5 L760.0,121.5 L762.0,115.5 L764.0,133.5 L766.0,145.0 L768.0,153.0 L770.0,162.0 L772.0,158.5 L774.0,153.0 L776.0,152.5 L778.0,153.5 L780.0,153.5 L782.0,153.0 L784.0,148.0 L786.0,137.5 L788.0,123.5 L790.0,120.0 L792.0,114.0 L794.0,100.0 L796.0,97.0 L798.0,105.5 L800.0,112.5 L802.0,109.0 L804.0,97.5 L806.0,89.5 L808.0,97.5 L810.0,99.5 L812.0,98.0 L814.0,94.5 L816.0,93.5 L818.0,97.0 L820.0,104.0 L822.0,108.0 L824.0,111.0 L826.0,111.0 L828.0,103.0 L830.0,97.0 L832.0,97.0 L834.0,105.5 L836.0,113.0 L838.0,121.5 L840.0,131.5 L842.0,124.5 L844.0,118.0 L846.0,130.0 L848.0,138.0 L850.0,141.0 L852.0,141.5 L854.0,141.5 L856.0,141.5 L858.0,141.5 L860.0,141.5 L862.0,139.5 L864.0,138.5 L866.0,144.0 L868.0,140.0 L870.0,135.5 L872.0,140.5 L874.0,137.5 L876.0,137.5 L878.0,137.5 L880.0,141.0 L882.0,144.0 L884.0,145.5 L886.0,146.5 L888.0,144.0 L890.0,139.5 L892.0,133.5 L894.0,137.5 L896.0,143.0 L898.0,142.0 L900.0,142.5 L902.0,149.5 L904.0,165.5 L906.0,179.0 L908.0,193.0 L910.0,208.0 L912.0,212.0 L914.0,210.5 L916.0,212.0 L918.0,203.0 L920.0,179.0 L922.0,166.0 L924.0,191.5 L926.0,198.5 L928.0,191.5 L930.0,180.5 L932.0,178.0 L934.0,184.0 L936.0,194.0 L938.0,200.0 L940.0,208.5 L942.0,227.0 L944.0,239.5 L946.0,240.5 L948.0,226.0 L950.0,218.0 L952.0,224.0 L954.0,227.5 L956.0,218.0 L958.0,213.5 L960.0,214.5 L962.0,220.5 L964.0,218.5 L966.0,215.5 L968.0,219.5 L970.0,210.0 L972.0,201.0 L974.0,209.5 L976.0,213.5 L978.0,214.5 L980.0,214.0 L982.0,206.0 L984.0,198.0 L986.0,194.0 L988.0,194.5 L990.0,194.8 L992.0,194.5 L994.0,199.8 L996.0,205.5 L998.0,213.5 L1000.0,220.0 L1002.0,222.5 L1004.0,223.5 L1006.0,222.0 L1008.0,215.0 L1010.0,211.0 L1012.0,219.5 L1014.0,220.5 L1016.0,217.0 L1018.0,215.5 L1020.0,218.5 L1022.0,232.5 L1024.0,245.5 L1026.0,243.5 L1028.0,251.0 L1030.0,251.0 L1032.0,230.5 L1034.0,231.0 L1036.0,235.0 L1038.0,222.5 L1040.0,212.0 L1042.0,209.0 L1044.0,214.0 L1046.0,212.5 L1048.0,213.5 L1050.0,215.5 L1052.0,214.5 L1054.0,211.5 L1056.0,209.0 L1058.0,211.0 L1060.0,210.0 L1062.0,207.5 L1064.0,207.0 L1066.0,200.5 L1068.0,187.0 L1070.0,167.5 L1072.0,158.5 L1074.0,157.5 L1076.0,156.5 L1078.0,153.5 L1080.0,152.5 L1082.0,153.5 L1084.0,156.5 L1086.0,154.0 L1088.0,151.0 L1090.0,154.0 L1092.0,154.8 L1094.0,152.0 L1096.0,144.5 L1098.0,140.5 L1100.0,140.5 L1102.0,144.5 L1104.0,149.5 L1106.0,154.0 L1108.0,149.5 L1110.0,144.0 L1112.0,136.3 L1114.0,128.0 L1116.0,111.5 L1118.0,103.5 L1120.0,102.5 L1122.0,96.0 L1124.0,96.0 L1126.0,99.0 L1128.0,104.0 L1130.0,102.0 L1132.0,98.0 L1134.0,100.5 L1136.0,100.5 L1138.0,100.0 L1140.0,101.5 L1142.0,102.5 L1144.0,93.5 L1146.0,85.5 L1148.0,88.0 L1150.0,86.0 L1152.0,79.0 L1154.0,68.5 L1156.0,59.5 L1158.0,59.5 L1160.0,73.5 L1162.0,78.0 L1164.0,75.0 L1166.0,70.5 L1168.0,68.0 L1170.0,68.0 L1172.0,71.0 L1174.0,76.0 L1176.0,83.0 L1178.0,90.5 L1180.0,96.0 L1182.0,96.5 L1184.0,93.5 L1186.0,89.5 L1188.0,88.0 L1190.0,88.0 L1192.0,89.5 L1194.0,92.0 L1196.0,98.5 L1198.0,109.0 L1200.0,104.5 L1202.0,95.0 L1204.0,89.0 L1206.0,87.0 L1208.0,75.5 L1210.0,63.0 L1212.0,62.5 L1214.0,66.5 L1216.0,75.0 L1218.0,85.0 L1220.0,87.5 L1222.0,87.0 L1224.0,89.0 L1226.0,89.5 L1228.0,87.5 L1230.0,83.5 L1232.0,87.0 L1234.0,89.6 L1236.0,92.2 L1238.0,95.2 L1240.0,98.5 L1242.0,103.5 L1244.0,108.0 L1246.0,112.5 L1248.0,110.0 L1250.0,96.0 L1252.0,88.0 L1254.0,85.0 L1256.0,80.0 L1258.0,75.0 L1260.0,72.0"/>


<g transform="translate(1235 90.9) scale(1.3) translate(-1235 -90.9)">
  <circle class="level" cx="1235" cy="90.9" r="5"/>
  <circle class="pulse" cx="1235" cy="90.9" r="6"/>
</g>
</svg>
